<svg xmlns="http://www.w3.org/2000/svg" viewBox="0 0 64 64">
  <circle cx="32" cy="32" r="30" fill="#FF8C42"/>
  <!-- Persona in meditazione stilizzata -->
  <!-- Testa -->
  <circle cx="32" cy="18" r="6" fill="#FDF8F3"/>
  <!-- Corpo (posizione loto) -->
  <path d="M32 24 C32 24, 22 30, 18 38 C16 42, 20 44, 24 42 C26 41, 28 40, 32 42 C36 40, 38 41, 40 42 C44 44, 48 42, 46 38 C42 30, 32 24, 32 24Z" fill="#FDF8F3"/>
  <!-- Braccia -->
  <path d="M22 32 Q18 36, 16 34" stroke="#FDF8F3" stroke-width="2.5" fill="none" stroke-linecap="round"/>
  <path d="M42 32 Q46 36, 48 34" stroke="#FDF8F3" stroke-width="2.5" fill="none" stroke-linecap="round"/>
  <!-- Foglia sopra la testa -->
  <path d="M32 10 Q36 6, 38 8 Q36 12, 32 12 Q28 12, 26 8 Q28 6, 32 10Z" fill="#5A9E94"/>
</svg>
